<svg xmlns="http://www.w3.org/2000/svg" width="30px" height="30px" x="0" y="0" viewBox="0 0 512 512" class="undefined">
      <path d="M198 198.9c-4.3-4.7-10.5-7.5-16.8-7.6 -12.9-0.2-23.5 10.1-23.7 22.9 -0.1 4.1 3.2 7.6 7.4 7.6 0 0 0.1 0 0.1 0 4.1 0 7.4-3.3 7.5-7.4 0.1-4.6 3.8-8.3 8.5-8.2 2.3 0 4.4 1 6 2.7 2.8 3.1 7.5 3.3 10.6 0.5C200.5 206.7 200.8 201.9 198 198.9z" class="undefined"/>
      <path d="M237.9 223.3c-2.3-5.4-6.8-9.7-12.3-11.7 -11.1-4.1-23.4 1.6-27.5 12.7 -1.4 3.9 0.5 8.2 4.4 9.6 0.9 0.3 1.7 0.5 2.6 0.5 3 0 5.9-1.9 7-4.9 1.2-3.3 4.9-5 8.3-3.8 1.7 0.6 3 1.9 3.7 3.5 1.6 3.8 6 5.6 9.8 4C237.7 231.5 239.5 227.1 237.9 223.3z" class="undefined"/>
      <path d="M286.2 156.9c-2.9-2.9-7.7-2.9-10.6 0l-7.1 7.1c-2.9 2.9-2.9 7.7 0 10.6 1.5 1.5 3.4 2.2 5.3 2.2 1.9 0 3.8-0.7 5.3-2.2l7.1-7.1C289.1 164.6 289.1 159.8 286.2 156.9z" class="undefined"/>
      <path d="M239.5 253.7h-10c-4.1 0-7.5 3.4-7.5 7.5 0 4.1 3.4 7.5 7.5 7.5h10c4.1 0 7.5-3.4 7.5-7.5C247 257.1 243.7 253.7 239.5 253.7z" class="undefined"/>
      <path d="M316.2 253.7h-10c-4.1 0-7.5 3.4-7.5 7.5 0 4.1 3.4 7.5 7.5 7.5h10c4.1 0 7.5-3.4 7.5-7.5C323.7 257.1 320.3 253.7 316.2 253.7z" class="undefined"/>
      <path d="M511.8 388.9l-2-10.5c-1.2-6.7-7.1-11.6-14-11.6 -0.9 0-1.7 0.1-2.6 0.2l-39.8 7.3 18-12c4.7-3.2 7.1-8.8 6.1-14.4 -0.3-1.5-0.8-3-1.6-4.4l-5.4-9.6c-1.9-3.3-5.1-5.8-8.7-6.8 -1.8-0.5-3.7-0.6-5.5-0.3 2-11.1 3-22.4 3-33.9 0-5.1-3.1-9.5-7.5-11.4 5.7-13.6 6.1-29.2 0.5-43.5 -0.5-1.2-1.1-2.2-2-3.1 -0.9-0.9-1.9-1.6-3.1-2 -6.8-2.7-13.9-4.1-21.2-4.1 -0.9 0-1.9 0-2.8 0.1 -1-20.9-18.4-37.6-39.5-37.6 -2.8 0-5.5 0.3-8.1 0.8 1.8-10.9 0.7-22.3-3.5-33 -0.5-1.2-1.1-2.2-2.1-3.2 -0.9-0.9-1.9-1.6-3.1-2 -7.3-2.9-15-4.4-22.8-4.4 -11.8 0-23.1 3.3-32.9 9.5 -3.6-10.3-9.4-20-17.7-28.3 -2.4-2.4-5.6-3.7-9-3.7 -3.4 0-6.6 1.3-9 3.7l-36.3 36.4c-6.7-6-15.6-9.6-25.2-9.6 -2.2 0-4.4 0.2-6.5 0.6 -7.8 1.4-15 5.2-20.5 10.8 -7.1-3.4-15.2-4.6-23-3.2 -1.7 0.3-3.4 0.7-5 1.2v-28c0-19.3-15.5-35.1-34.7-35.4V87.5c5.9-1 10.4-6.1 10.4-12.3V39.1c0-6.9-5.6-12.5-12.5-12.5H61.2c-6.9 0-12.5 5.6-12.5 12.5v36c0 6.2 4.5 11.3 10.4 12.3v15.9c-19.2 0.3-34.7 16.1-34.7 35.4v218.9C9.3 371.2 0 390.1 0 410.9c0 41 36 74.4 80.3 74.4l300.2-0.1c10.2 0 19.9-4.5 26.4-12.4 6.4-7.6 9.1-17.6 7.5-27.3l60 10.8c0.8 0.1 1.7 0.2 2.5 0.2 3 0 5.9-0.9 8.3-2.7 3.1-2.2 5.2-5.7 5.8-9.5l1.6-10.9c0.2-1.6 0.2-3.1-0.1-4.7 -1-5.6-5.3-10-10.8-11.3l-21.1-4.8 39.7-7.3c3.7-0.7 7-2.8 9.2-5.9C511.6 396.4 512.5 392.7 511.8 388.9zM426 243.7c4.5 0 9 0.7 13.2 2.1 3.8 11.6 2.4 24.1-3.6 34.5h-20.2l6.4-6.5c2.9-2.9 2.9-7.7 0-10.6 -2.9-2.9-7.7-2.9-10.6 0l-3.4 3.4c-1.6-5.3-4.4-10-8.1-13.8C407.3 247 416.4 243.7 426 243.7zM383.7 206.2c13.5 0 24.6 11.1 24.6 24.6 0 0.3 0 0.5 0 0.8 -7.9 2.6-15.2 6.9-21.4 12.7 -1-0.4-2-0.7-3-1 -2.2-11.9-10.2-21.4-20.7-25.8C367.5 210.7 375.1 206.2 383.7 206.2zM344.1 164.4c5.1 0 10.1 0.8 14.9 2.5 3.9 11.5 3.1 23.9-1.9 34.6 -4.1 3.7-7.4 8.2-9.6 13.3 -1.3 0.1-2.7 0.2-4 0.5 -5.9 1-11.4 3.6-15.9 7.3 -1.6-2.9-3.5-5.5-5.7-7.9l17.2-17.2c2.9-2.9 2.9-7.7 0-10.6 -2.9-2.9-7.7-2.9-10.6 0l-18.8 18.8c-3.6-1.7-7.4-2.9-11.5-3.4 1.8-8.9 6.1-17.4 12.8-24.1C319.9 169.3 331.6 164.4 344.1 164.4zM286.6 280.3h-6.5c-1.1-2.8-3.8-4.8-7-4.8s-5.9 2-7 4.8h-7.6c1.8-2.9 1.4-6.7-1.1-9.2 -2.9-2.9-7.7-2.9-10.6 0l-7.1 7.1c-0.6 0.6-1.1 1.4-1.5 2.1h-15.3c-5.7-8.8-9.2-19.1-9.6-30.3h119c-0.4 11.1-3.9 21.5-9.6 30.3h-15.9c-0.4-0.8-0.8-1.5-1.5-2.1l-7.1-7.1c-2.9-2.9-7.7-2.9-10.6 0C285.2 273.6 284.8 277.5 286.6 280.3zM269.2 235.1c2.8-10.5 12.4-18.2 23.7-18.2 11.3 0 20.9 7.7 23.7 18.2H269.2zM284.5 142.9c7.1 7.7 11.9 16.9 14.2 26.5 -3.8 4.2-7 8.8-9.5 13.7 -1.1-0.7-2.5-1.1-3.9-1.1h-10c-4.1 0-7.5 3.4-7.5 7.5 0 4.1 3.4 7.5 7.5 7.5h8.8c-0.5 2.1-0.9 4.2-1.2 6.3 -3 0.8-5.8 1.9-8.5 3.3 -5-8.6-13.3-15.1-23.1-17.6 0 0 0 0 0-0.1 -0.6-3.4-1.6-6.6-3-9.6L284.5 142.9zM148.9 210.5c-0.4-1.2-0.8-2.5-1-3.8 -2.2-12.4 6.2-24.2 18.6-26.4 1.3-0.2 2.6-0.3 4-0.3 4.9 0 9.7 1.6 13.7 4.6 1.7 1.2 3.7 1.7 5.8 1.4 2-0.4 3.8-1.5 5-3.2 3.5-5.3 8.9-8.8 15.2-9.9 1.3-0.2 2.6-0.3 4-0.3 11.1 0 20.6 8 22.5 18.9 0.2 1.3 0.3 2.6 0.3 3.9 0 3.9 3 7.1 6.8 7.5 8.4 0.7 15.5 6 18.8 13.4 -4.4 5.3-7.5 11.8-8.7 18.9H211.1c-5.3 0-9.9 3.3-11.8 7.9 -9.4-6.4-20.5-9.9-32.1-9.9 -7.3 0-14.4 1.4-21.2 4.1 -1.2 0.5-2.2 1.1-3.1 2 -0.9 0.9-1.6 1.9-2 3.1 -1.7 4.4-2.9 8.8-3.5 13.3 -2.7-3.1-4.6-6.9-5.3-11.1 -1.8-10.2 3.6-20.3 13-24.6C148.5 218.2 150.2 214.2 148.9 210.5zM171.3 278.3l2 2.1h-18c-4-9.4-4.7-20.1-1.4-30.1 4.3-1.4 8.7-2.1 13.2-2.1 11.3 0 21.9 4.4 29.9 12.4 1.1 1.1 2.1 2.2 3 3.3 1.3 5.8 3.2 11.3 5.7 16.4H194.5l-12.6-12.6c-2.9-2.9-7.7-2.9-10.6 0C168.4 270.6 168.4 275.4 171.3 278.3zM139.3 280.3h-26.7c1.2-7.3 5.6-13.5 11.6-17.1 3.6 4.8 8.3 8.7 13.7 11.3C138.3 276.5 138.8 278.4 139.3 280.3zM63.7 41.6h56v31H63.7V41.6zM109.3 87.7v15.7H74V87.7H109.3zM39.3 169.2H88c4.1 0 7.5-3.4 7.5-7.5 0-4.1-3.4-7.5-7.5-7.5H39.3v-15.4c0-11.2 9.1-20.4 20.3-20.4h64c11.2 0 20.3 9.2 20.3 20.4v15.4H130c-4.1 0-7.5 3.4-7.5 7.5 0 4.1 3.4 7.5 7.5 7.5h14v6.7c-8.6 8.4-13.1 20.8-10.9 33.5 0 0 0 0.1 0 0.1 -12 8.3-18.4 22.9-15.9 37.7 0.1 0.9 0.3 1.7 0.5 2.5 -3.7 2.1-7.1 4.7-10 7.9H39.3V169.2zM39.3 272.5L39.3 272.5H99.1c-0.8 2.5-1.4 5.2-1.6 7.9h-1.3c-6.9 0-12.5 5.6-12.5 12.5 0 11.9 1.1 23.6 3.3 35 -2.2-0.2-4.4-0.3-6.6-0.3 -9.1 0-17.7 1.4-24.3 4.1 -10.1 4-12.9 9.7-13.5 13.6 -1.1 0.5-2.1 1.1-3.2 1.7V272.5zM134.3 364.6c2.7 2.2 4.4 4 5.3 5.3 -0.1 0-0.2 0-0.3 0 -4.2 0-11.9-1.7-20.5-6.5 -3.2-1.8-6.2-3.8-8.6-5.8 -2.8-2.4-6.9-2.4-9.7 0 -2.4 2-5.4 4.1-8.6 5.8 -8.7 4.8-16.3 6.5-20.5 6.5 -0.1 0-0.2 0-0.3 0 1-1.3 2.6-3.2 5.3-5.3 2.4-1.9 3.4-5 2.5-7.9 -0.8-2.9-3.3-5-6.3-5.4 -7.3-0.9-11.9-2.7-14.1-4.1 2.7-1.7 9.6-4.6 21.9-4.6 10.2 0 17.7 2.2 21.3 4.2 2.3 1.3 5.1 1.3 7.3 0 3.6-2 11.1-4.2 21.3-4.2 12.4 0 19.2 2.9 21.9 4.6 -2.2 1.4-6.8 3.2-14.1 4.1 -3 0.4-5.5 2.5-6.3 5.4C130.9 359.6 131.9 362.7 134.3 364.6zM119.3 455.9l0.3 1.4c0.9 4.8 2.8 9.2 5.4 13.1H80.3c-36 0-65.3-26.7-65.3-59.4 0-22.4 13.7-41.9 33.8-52.1 2.3 1.7 5.2 3.2 8.6 4.4 -1.4 2.3-2.3 4.8-2.5 7.4 -0.3 3.5 0.8 6.7 3 9.2 2.9 3.3 7.4 5 13.4 5 7.9 0 18.3-3.1 27.8-8.4 2.2-1.2 4.3-2.5 6.2-3.8 1.9 1.3 4 2.6 6.2 3.8 9.5 5.3 19.9 8.4 27.8 8.4h0c5.9 0 10.4-1.7 13.4-5 2.2-2.5 3.3-5.8 3-9.2 -0.2-2.6-1.2-5.1-2.5-7.4 3.4-1.2 6.3-2.7 8.6-4.4 16 8 27.9 22 32.1 38.6l-53 20.2C125.3 423.5 116.2 439.6 119.3 455.9zM395.4 463.3c-3.7 4.4-9.1 7-14.9 7l-7.9 0 -4.9-26.6c-0.8-4.1-4.7-6.8-8.7-6 -4.1 0.8-6.8 4.7-6 8.7l4.4 23.8 -25.8 0 -3.3-18c-0.8-4.1-4.7-6.8-8.7-6 -4.1 0.8-6.8 4.7-6 8.7l2.8 15.2 -60 0 -4.5-24.4c-0.8-4.1-4.7-6.8-8.7-6 -4.1 0.8-6.8 4.7-6 8.7l4 21.7 -87.6 0c0 0 0 0 0 0 -9.4 0-17.4-6.6-19.1-15.8l-0.3-1.4c-1.7-9.2 3.4-18.2 12.2-21.5l29.5-11.2 2.2 11.9c0.7 3.6 3.8 6.1 7.4 6.1 0.5 0 0.9 0 1.4-0.1 4.1-0.8 6.8-4.7 6-8.7l-2.7-14.5 43.8-16.6c3.9-1.5 5.8-5.8 4.3-9.7 -1.5-3.9-5.8-5.8-9.7-4.3l-20.4 7.7c-5.7-20.2-20.4-37.1-39.8-46.8 -0.6-3.9-3.4-9.6-13.5-13.6 -6.6-2.6-15.3-4.1-24.3-4.1 -6.2 0-12.2 0.7-17.5 1.9v-4.5c0-4.1-3.4-7.5-7.5-7.5 -1.8 0-3.4 0.6-4.6 1.6 -1.2-7.8-1.8-15.8-2-23.8H343c4.1 0 7.5-3.4 7.5-7.5 0-4.1-3.4-7.5-7.5-7.5h-3.1c4.8-9.8 7.5-20.9 7.5-32.5 0-6.6-5.1-12.1-11.5-12.7 2.8-2.6 6.3-4.4 10.2-5.1 1.1-0.2 2.3-0.3 3.5-0.3 9.7 0 17.9 6.9 19.6 16.5 0.2 1.1 0.3 2.2 0.3 3.4 0 3.9 3 7.1 6.8 7.5 9 0.8 16.3 7.5 17.8 16.4 0.4 2.4 0.4 4.7-0.1 6.9H386c-4.1 0-7.5 3.4-7.5 7.5 0 4.1 3.4 7.5 7.5 7.5h58.3c-0.2 13.8-2 27.2-5.3 40.2l-40.6 24c-2.5-8.7-8.3-16-16.2-20.4 -8.9-5-19.5-5.8-29.1-2.1l-83.7 31.8c-3.9 1.5-5.8 5.8-4.3 9.7 1.5 3.9 5.8 5.8 9.7 4.3l11-4.2 3.4 18.5c0.7 3.6 3.8 6.1 7.4 6.1 0.5 0 0.9 0 1.4-0.1 4.1-0.8 6.8-4.7 6-8.7l-3.9-21.2 58.4-22.2c5.4-2.1 11.4-1.6 16.5 1.2 5 2.8 8.5 7.7 9.6 13.3l15.2 81.9C400.6 453.1 399.1 458.9 395.4 463.3zM422.2 404.6c-3.5 0.6-6.1 3.7-6.1 7.2 -0.1 3.6 2.4 6.7 5.8 7.5l55.8 12.8 -1.4 9.4 -64.7-11.6 -10.1-54.6 56.4-33.3 4.7 8.3 -47.6 31.8c-3 2-4.1 5.8-2.8 9.1 1.3 3.3 4.8 5.2 8.3 4.6l74.7-13.7 1.7 9L422.2 404.6z" class="undefined"/>
</svg>
